<svg xmlns="http://www.w3.org/2000/svg" version="1.1" xmlns:xlink="http://www.w3.org/1999/xlink" width="512" height="512" x="0" y="0" viewBox="0 0 100 100" style="enable-background:new 0 0 512 512" xml:space="preserve" class=""><g><path fill="#d9a440" d="M81.05 28.33h-62.1c-7.47 0-13.55 6.08-13.55 13.55s6.08 13.55 13.55 13.55h36.8c1.62 2.9 9.46 16.25 17.01 16.25h.13c.92-.02 1.74-.51 2.18-1.33.47-.86.45-1.92-.06-2.76-2.43-4.05-2.44-9.93-2.34-12.16h8.38c7.47 0 13.55-6.08 13.55-13.55s-6.07-13.55-13.55-13.55zm-60.8 7.79h-.24c-3.64 0-6.61 2.96-6.61 6.61 0 .55-.45 1-1 1s-1-.45-1-1c0-4.75 3.86-8.61 8.61-8.61h.24c.55 0 1 .45 1 1s-.44 1-1 1z" opacity="1" data-original="#f7da1a" class=""></path><path fill="#f5e9d4" d="M20.25 34.12h-.24c-4.75 0-8.61 3.86-8.61 8.61 0 .55.45 1 1 1s1-.45 1-1c0-3.64 2.96-6.61 6.61-6.61h.24c.55 0 1-.45 1-1s-.44-1-1-1z" opacity="1" data-original="#ffffff" class=""></path></g></svg>