<svg xmlns="http://www.w3.org/2000/svg" version="1.1" xmlns:xlink="http://www.w3.org/1999/xlink" width="512" height="512" x="0" y="0" viewBox="0 0 512 512" style="enable-background:new 0 0 512 512" xml:space="preserve" class=""><g><path fill="#1a2d4e" d="M512 256c0 141.387-114.613 256-256 256S0 397.387 0 256 114.613 0 256 0s256 114.613 256 256zm0 0" opacity="1" data-original="#f40000" class=""></path><path fill="#1a2d4e" d="m511.313 274.785-137.2-137.2L116.875 425.7l79.242 79.242A256.6 256.6 0 0 0 256 512c135.066 0 245.691-104.602 255.313-237.215zm0 0" opacity="1" data-original="#9b000a" class=""></path><path fill="#f4d35e" d="M422.309 254.473c0 91.507-74.184 165.691-165.692 165.691-91.512 0-165.695-74.184-165.695-165.691 0-91.512 74.183-165.696 165.695-165.696 91.508 0 165.692 74.184 165.692 165.696zm0 0" opacity="1" data-original="#ffe470" class=""></path><path fill="#f4d35e" d="m150.262 347.793-33.387 77.906 95.527-38.953zm0 0" opacity="1" data-original="#ffe470" class=""></path><path fill="#d9a440" d="M256.617 88.777c91.508 0 165.692 74.184 165.692 165.692 0 91.511-74.184 165.695-165.692 165.695zm0 0" opacity="1" data-original="#ebb100" class=""></path><path fill="#1a2d4e" d="M256 295.793c-16.32 0-30.074-13.535-30.074-30.078v-98.086c0-16.543 11.715-30.074 30.074-30.074s30.074 13.53 30.074 30.074v98.086c0 16.543-13.754 30.078-30.074 30.078zM286.074 341.313c0 16.609-13.465 30.078-30.074 30.078s-30.074-13.47-30.074-30.079S239.39 311.238 256 311.238s30.074 13.465 30.074 30.075zm0 0" opacity="1" data-original="#f40000" class=""></path><g fill="#9b000a"><path d="M256 311.238c16.61 0 30.074 13.465 30.074 30.074S272.61 371.392 256 371.392zM256 137.55c18.363 0 30.074 13.536 30.074 30.079v98.086c0 16.543-13.754 30.074-30.074 30.074zm0 0" fill="#1a2d4e" opacity="1" data-original="#9b000a" class=""></path></g></g></svg>